<?xml version="1.0" encoding="UTF-8"?>
<svg width="37px" height="36px" viewBox="0 0 37 36" version="1.1" xmlns="http://www.w3.org/2000/svg" xmlns:xlink="http://www.w3.org/1999/xlink">
    <title>LinkedIn</title>
    <g id="Page-1" stroke="none" stroke-width="1" fill="none" fill-rule="evenodd">
        <path d="M33.4,0 C34.9,0 36.1,1.2 36.1,2.6 L36.1,33.4 C36.1,34.8 34.9,36 33.4,36 L2.7,36 C1.2,36 0,34.8 0,33.4 L0,2.6 C0,1.2 1.2,0 2.7,0 L33.4,0 Z M5.4,13.5 L5.4,30.7 L10.7,30.7 L10.7,13.5 L5.4,13.5 Z M8.1,5 C6.4,5 5,6.3 5,8.1 C5,9.8 6.4,11.2 8.1,11.2 C9.8,11.2 11.2,9.8 11.2,8.1 C11.2,6.4 9.8,5 8.1,5 Z M14.1,13.5 L14.2,13.5 L14.2,30.5 L19.5,30.5 L19.5,22 C19.5,19.8 19.9,17.6 22.7,17.6 C25.5,17.6 25.5,20.2 25.5,22.2 L25.5,30.6 L30.8,30.6 L30.8,21.2 C30.8,16.6 29.8,13 24.4,13 C21.8,13 20,14.4 19.3,15.8 L19.2,15.8 L19.2,13.5 L14.1,13.5 Z" id="Combined-Shape" fill="#FFFFFF" fill-rule="nonzero"></path>
    </g>
</svg>
